<?xml version="1.0" encoding="UTF-8" standalone="no"?>
<!DOCTYPE svg PUBLIC "-//W3C//DTD SVG 1.1//EN"
 "http://www.w3.org/Graphics/SVG/1.1/DTD/svg11.dtd">
<!-- Generated by graphviz version 2.40.1 (20161225.0304)
 -->
<!-- Title: %3 Pages: 1 -->
<svg width="129pt" height="332pt"
 viewBox="0.00 0.00 129.25 332.00" xmlns="http://www.w3.org/2000/svg" xmlns:xlink="http://www.w3.org/1999/xlink">
<g id="graph0" class="graph" transform="scale(1 1) rotate(0) translate(4 328)">
<title>%3</title>
<polygon fill="#ffffff" stroke="transparent" points="-4,4 -4,-328 125.2529,-328 125.2529,4 -4,4"/>
<!-- trigger -->
<g id="node1" class="node">
<title>trigger</title>
<polygon fill="#aaffaa" stroke="#aaffaa" points="121.3797,-324 -.1267,-324 -.1267,-288 121.3797,-288 121.3797,-324"/>
<text text-anchor="middle" x="60.6265" y="-301.8" font-family="Times,serif" font-size="14.00" fill="#000000">Trigger email send</text>
</g>
<!-- template -->
<g id="node2" class="node">
<title>template</title>
<polygon fill="#aaffaa" stroke="#aaffaa" points="116.9303,-252 4.3226,-252 4.3226,-216 116.9303,-216 116.9303,-252"/>
<text text-anchor="middle" x="60.6265" y="-229.8" font-family="Times,serif" font-size="14.00" fill="#000000">Request template</text>
</g>
<!-- trigger&#45;&gt;template -->
<g id="edge1" class="edge">
<title>trigger&#45;&gt;template</title>
<path fill="none" stroke="#000000" d="M60.6265,-287.8314C60.6265,-280.131 60.6265,-270.9743 60.6265,-262.4166"/>
<polygon fill="#000000" stroke="#000000" points="64.1266,-262.4132 60.6265,-252.4133 57.1266,-262.4133 64.1266,-262.4132"/>
</g>
<!-- getInfo -->
<g id="node3" class="node">
<title>getInfo</title>
<polygon fill="#aaffaa" stroke="#aaffaa" points="117.606,-180 3.647,-180 3.647,-144 117.606,-144 117.606,-180"/>
<text text-anchor="middle" x="60.6265" y="-157.8" font-family="Times,serif" font-size="14.00" fill="#000000">Request user info</text>
</g>
<!-- template&#45;&gt;getInfo -->
<g id="edge2" class="edge">
<title>template&#45;&gt;getInfo</title>
<path fill="none" stroke="#000000" d="M60.6265,-215.8314C60.6265,-208.131 60.6265,-198.9743 60.6265,-190.4166"/>
<polygon fill="#000000" stroke="#000000" points="64.1266,-190.4132 60.6265,-180.4133 57.1266,-190.4133 64.1266,-190.4132"/>
</g>
<!-- render -->
<g id="node4" class="node">
<title>render</title>
<polygon fill="#aaffaa" stroke="#aaffaa" points="110.2171,-108 11.0358,-108 11.0358,-72 110.2171,-72 110.2171,-108"/>
<text text-anchor="middle" x="60.6265" y="-85.8" font-family="Times,serif" font-size="14.00" fill="#000000">Render HTML</text>
</g>
<!-- getInfo&#45;&gt;render -->
<g id="edge3" class="edge">
<title>getInfo&#45;&gt;render</title>
<path fill="none" stroke="#000000" d="M60.6265,-143.8314C60.6265,-136.131 60.6265,-126.9743 60.6265,-118.4166"/>
<polygon fill="#000000" stroke="#000000" points="64.1266,-118.4132 60.6265,-108.4133 57.1266,-118.4133 64.1266,-118.4132"/>
</g>
<!-- send -->
<g id="node5" class="node">
<title>send</title>
<polygon fill="#aaffaa" stroke="#aaffaa" points="101.0611,-36 20.1919,-36 20.1919,0 101.0611,0 101.0611,-36"/>
<text text-anchor="middle" x="60.6265" y="-13.8" font-family="Times,serif" font-size="14.00" fill="#000000">Send Email</text>
</g>
<!-- render&#45;&gt;send -->
<g id="edge4" class="edge">
<title>render&#45;&gt;send</title>
<path fill="none" stroke="#000000" d="M60.6265,-71.8314C60.6265,-64.131 60.6265,-54.9743 60.6265,-46.4166"/>
<polygon fill="#000000" stroke="#000000" points="64.1266,-46.4132 60.6265,-36.4133 57.1266,-46.4133 64.1266,-46.4132"/>
</g>
</g>
</svg>
